P1
# Created by GIMP version 2.10.8 PNM plug-in
100 100
1110000000000000000000000000000000000000000000000000000000000000000000
0000000000000000000000000000001110000000000000000000000000000000000000
0000000000000000000000000000000000000000000000000000000000001111000000
0000000000000000000000000000000000000000000000000000000000000000000000
0000000000000000000011110000000000000000000000000000000000000000000000
0000000000000000000000000000000000000000000000000011111000000000000000
0000000000000000000000000000000000000000000000000000000000000000000000
0000000000111110000000000000000000000000000000000000000000000000000000
0000000000000000000000000000000000000000111111000000000000000000000000
0000000000000000000000000000000000000000000000000000000000000000000000
1111110000000000000000000000000000000000000000000000000000000000000000
0000000000000000000000000000001111111000000000000000000000000000000000
0000000000000000000000000000000000000000000000000000000000001111111100
0000000000000000000000000000000000000000000000000000000000000000000000
0000000000000000000011111111100000000000000000000000000000000000000000
0000000000000000000000000000000000000000000000000011111111100000000000
0000000000000000000000000000000000000000000000000000000000000000000000
0000000000111111111100000000000000000000000000000000000000000000000000
0000000000000000000000000000000000000000111111111100000000000000000000
0000000000000000000000000000000000000000000000000000000000000000000000
1111111111000000000000000000000000000000000000000000000000000000000000
0000000000000000000000000000001111111111100000000000000000000000000000
0000000000000000000000000000000000000000000000000000000000001111111111
1100000000000000000000000000000000000000000000000000000000000000000000
0000000000000000000011111111111100000000000000000000000000000000000000
0000000000000000000000000000000000000000000000000011111111111110000000
0000000000000000000000000000000000000000000000000000000000000000000000
0000000000111111111111110000000000000000000000000000000000000000000000
0000000000000000000000000000000000000000111111111111110000000000000000
0000000000000000000000000000000000000000000000000000000000000000000000
1111111111111110000000000000000000000000000000000000000000000000000000
0000000000000000000000000000001111111111111110000000000000000000000000
0000000000000000000000000000000000000000000000000000000000001111111111
1111100000000000000000000000000000000000000000000000000000000000000000
0000000000000000000011111111111111110000000000000000000000000000000000
0000000000000000000000000000000000000000000000000011111111111111110000
0000000000000000000000000000000000000000000000000000000000000000000000
0000000000111111111111111100000000000000000000000000000000000000000000
0000000000000000000000000000000000000000111111111111111110000000000000
0000000000000000000000000000000000000000000000000000000000000000000000
1111111111111111100000000000000000000000000000000000000000000000000000
0000000000000000000000000000001111111111111111110000000000000000000000
0000000000000000000000000000000000000000000000000000000000001111111111
1111111100000000000000000000000000000000000000000000000000000000000000
0000000000000000000011111111111111111110000000000000000000000000000000
0000000000000000000000000000000000000000000000000011111111111111111110
0000000000000000000000000000000000000000000000000000000000000000000000
0000000000111111111111111111100000000000000000000000000000000000000000
0000000000000000000000000000000000000000111111111111111111110000000000
0000000000000000000000000000000000000000000000000000000000000000000000
1111111111111111111100000000000000000000000000000000000000000000000000
0000000000000000000000000000001111111111111111111100000000000000000000
0000000000000000000000000000000000000000000000000000000000001111111111
1111111111100000000000000000000000000000000000000000000000000000000000
0000000000000000000011111111111111111111110000000000000000000000000000
0000000000000000000000000000000000000000000000000011111111111111111111
1100000000000000000000000000000000000000000000000000000000000000000000
0000000000111111111111111111111110000000000000000000000000000000000000
0000000000000000000000000000000000000000111111111111111111111110000000
0000000000000000000000000000000000000000000000000000000000000000000000
1111111111111111111111110000000000000000000000000000000000000000000000
0000000000000000000000000000001111111111111111111111110000000000000000
0000000000000000000000000000000000000000000000000000000000001111111111
1111111111111110000000000000000000000000000000000000000000000000000000
0000000000000000000011111111111111111111111111000000000000000000000000
0000000000000000000000000000000000000000000000000011111111111111111111
1111111000000000000000000000000000000000000000000000000000000000000000
0000000000111111111111111111111111111100000000000000000000000000000000
0000000000000000000000000000000000000000111111111111111111111111111110
0000000000000000000000000000000000000000000000000000000000000000000000
1111111111111111111111111111110000000000000000000000000000000000000000
0000000000000000000000000000001111111111111111111111111111111000000000
0000000000000000000000000000000000000000000000000000000000001111111111
1111111111111111111111000000000000000000000000000000000000000000000000
0000000000000000000011111111111111111111111111111111100000000000000000
0000000000000000000000000000000000000000000000000011111111111111111111
1111111111111100000000000000000000000000000000000000000000000000000000
0000000000111111111111111111111111111111111110000000000000000000000000
0000000000000000000000000000000000000000111111111111111111111111111111
1111110000000000000000000000000000000000000000000000000000000000000000
1111111111111111111111111111111111111000000000000000000000000000000000
0000000000000000000000000000001111111111111111111111111111111111111000
0000000000000000000000000000000000000000000000000000000000001111111111
1111111111111111111111111111000000000000000000000000000000000000000000
0000000000000000000011111111111111111111111111111111111111100000000000
0000000000000000000000000000000000000000000000000011111111111111111111
1111111111111111111000000000000000000000000000000000000000000000000000
0000000000111111111111111111111111111111111111111100000000000000000000
0000000000000000000000000000000000000000111111111111111111111111111111
1111111111110000000000000000000000000000000000000000000000000000000000
1111111111111111111111111111111111111111111000000000000000000000000000
0000000000000000000000000000001111111111111111111111111111111111111111
1111000000000000000000000000000000000000000000000000000000001111111111
1111111111111111111111111111111111100000000000000000000000000000000000
0000000000000000000011111111111111111111111111111111111111111111110000
0000000000000000000000000000000000000000000000000011111111111111111111
1111111111111111111111111110000000000000000000000000000000000000000000
0000000000111111111111111111111111111111111111111111111111000000000000
0000000000000000000000000000000000000000111111111111111111111111111111
1111111111111111111100000000000000000000000000000000000000000000000000
1111111111111111111111111111111111111111111111111111000000000000000000
0000000000000000000000000000001111111111111111111111111111111111111111
1111111111111000000000000000000000000000000000000000000000001111111111
1111111111111111111111111111111111111111111100000000000000000000000000
0000000000000000000011111111111111111111111111111111111111111111111111
1111111000000000000000000000000000000000000000000011111111111111111111
1111111111111111111111111111111111111110000000000000000000000000000000
0000000000111111111111111111111111111111111111111111111111111111111111
0000000000000000000000000000000000000000111111111111111111111111111111
1111111111111111111111111111111000000000000000000000000000000000000000
1111111111111111111111111111111111111111111111111111111111111100000000
0000000000000000000000000000001111111111111111111111111111111111111111
1111111111111111111111100000000000000000000000000000000000001111111111
1111111111111111111111111111111111111111111111111111110000000000000000
0000000000000000000011111111111111111111111111111111111111111111111111
1111111111111110000000000000000000000000000000000011111111111111111111
1111111111111111111111111111111111111111111111110000000000000000000000
0000000000111111111111111111111111111111111111111111111111111111111111
1111111111000000000000000000000000000000111111111111111111111111111111
1111111111111111111111111111111111111111100000000000000000000000000000
1111111111111111111111111111111111111111111111111111111111111111111111
1111100000000000000000000000001111111111111111111111111111111111111111
1111111111111111111111111111111111111100000000000000000000001111111111
1111111111111111111111111111111111111111111111111111111111111111111111
0000000000000000000011111111111111111111111111111111111111111111111111
1111111111111111111111111111111111100000000000000011111111111111111111
1111111111111111111111111111111111111111111111111111111111111111111100
0000000000111111111111111111111111111111111111111111111111111111111111
1111111111111111111111111111111000000000111111111111111111111111111111
1111111111111111111111111111111111111111111111111111111111111111000000
1111111111111111111111111111111111111111111111111111111111111111111111
1111111111111111111111111100001111111111111111111111111111111111111111
1111111111111111111111111111111111111111111111111111111110001111111111
1111111111111111111111111111111111111111111111111111111111111111111111
1111111111111111110011111111111111111111111111111111111111111111111111
1111111111111111111111111111111111111111111111111011111111111111111111
1111111111111111111111111111111111111111111111111111111111111111111111
1111111111111111111111111111111111111111111111111111111111111111111111
1111111111111111111111111111111111111111111111111111111111111111111111
1111111111111111111111111111111111111111111111111111111111111111111111
1111111111111111111111111111111111111111111111111111111111111111111111
1111111111111111111111111111111111111111111111111111111111111111111111
111111111111111111111111111111111111111111111111111111111111