P1
# Created by GIMP version 2.10.8 PNM plug-in
100 100
1111111111111111111111111111111111111111111111110000000000000000000000
0000000000000000000000000000001111111111111111111111111111111111111111
1111111110000000000000000000000000000000000000000000000000001111111111
1111111111111111111111111111111111111111000000000000000000000000000000
0000000000000000000011111111111111111111111111111111111111111111111111
0000000000000000000000000000000000000000000000000011111111111111111111
1111111111111111111111111111111000000000000000000000000000000000000000
0000000000111111111111111111111111111111111111111111111111111000000000
0000000000000000000000000000000000000000111111111111111111111111111111
1111111111111111111110000000000000000000000000000000000000000000000000
1111111111111111111111111111111111111111111111111111000000000000000000
0000000000000000000000000000001111111111111111111111111111111111111111
1111111111110000000000000000000000000000000000000000000000001111111111
1111111111111111111111111111111111111111110000000000000000000000000000
0000000000000000000011111111111111111111111111111111111111111111111111
1100000000000000000000000000000000000000000000000011111111111111111111
1111111111111111111111111111111100000000000000000000000000000000000000
0000000000111111111111111111111111111111111111111111111111111100000000
0000000000000000000000000000000000000000111111111111111111111111111111
1111111111111111111111000000000000000000000000000000000000000000000000
1111111111111111111111111111111111111111111111111111000000000000000000
0000000000000000000000000000001111111111111111111111111111111111111111
1111111111110000000000000000000000000000000000000000000000001111111111
1111111111111111111111111111111111111111110000000000000000000000000000
0000000000000000000011111111111111111111111111111111111111111111111111
1100000000000000000000000000000000000000000000000011111111111111111111
1111111111111111111111111111111100000000000000000000000000000000000000
0000000000111111111111111111111111111111111111111111111111111110000000
0000000000000000000000000000000000000000111111111111111111111111111111
1111111111111111111111100000000000000000000000000000000000000000000000
1111111111111111111111111111111111111111111111111111100000000000000000
0000000000000000000000000000001111111111111111111111111111111111111111
1111111111111000000000000000000000000000000000000000000000001111111111
1111111111111111111111111111111111111111111000000000000000000000000000
0000000000000000000011111111111111111111111111111111111111111111111111
1110000000000000000000000000000000000000000000000011111111111111111111
1111111111111111111111111111111110000000000000000000000000000000000000
0000000000111111111111111111111111111111111111111111111111111110000000
0000000000000000000000000000000000000000111111111111111111111111111111
1111111111111111111111100000000000000000000000000000000000000000000000
1111111111111111111111111111111111111111111111111111100000000000000000
0000000000000000000000000000001111111111111111111111111111111111111111
1111111111111000000000000000000000000000000000000000000000001111111111
1111111111111111111111111111111111111111111000000000000000000000000000
0000000000000000000011111111111111111111111111111111111111111111111111
1110000000000000000000000000000000000000000000000011111111111111111111
1111111111111111111111111111111110000000000000000000000000000000000000
0000000000111111111111111111111111111111111111111111111111111110000000
0000000000000000000000000000000000000000111111111111111111111111111111
1111111111111111111111100000000000000000000000000000000000000000000000
1111111111111111111111111111111111111111111111111111100000000000000000
0000000000000000000000000000001111111111111111111111111111111111111111
1111111111111000000000000000000000000000000000000000000000001111111111
1111111111111111111111111111111111111111111000000000000000000000000000
0000000000000000000011111111111111111111111111111111111111111111111111
1110000000000000000000000000000000000000000000000011111111111111111111
1111111111111111111111111111111110000000000000000000000000000000000000
0000000000111111111111111111111111111111111111111111111111111110000000
0000000000000000000000000000000000000000111111111111111111111111111111
1111111111111111111111100000000000000000000000000000000000000000000000
1111111111111111111111111111111111111111111111111111100000000000000000
0000000000000000000000000000001111111111111111111111111111111111111111
1111111111111000000000000000000000000000000000000000000000001111111111
1111111111111111111111111111111111111111111000000000000000000000000000
0000000000000000000011111111111111111111111111111111111111111111111111
1110000000000000000000000000000000000000000000000011111111111111111111
1111111111111111111111111111111110000000000000000000000000000000000000
0000000000111111111111111111111111111111111111111111111111111110000000
0000000000000000000000000000000000000000111111111111111111111111111111
1111111111111111111111100000000000000000000000000000000000000000000000
1111111111111111111111111111111111111111111111111111100000000000000000
0000000000000000000000000000001111111111111111111111111111111111111111
1111111111111000000000000000000000000000000000000000000000001111111111
1111111111111111111111111111111111111111111000000000000000000000000000
0000000000000000000011111111111111111111111111111111111111111111111111
1110000000000000000000000000000000000000000000000011111111111111111111
1111111111111111111111111111111110000000000000000000000000000000000000
0000000000111111111111111111111111111111111111111111111111111110000000
0000000000000000000000000000000000000000111111111111111111111111111111
1111111111111111111111100000000000000000000000000000000000000000000000
1111111111111111111111111111111111111111111111111111100000000000000000
0000000000000000000000000000001111111111111111111111111111111111111111
1111111111111000000000000000000000000000000000000000000000001111111111
1111111111111111111111111111111111111111111000000000000000000000000000
0000000000000000000011111111111111111111111111111111111111111111111111
1100000000000000000000000000000000000000000000000011111111111111111111
1111111111111111111111111111111100000000000000000000000000000000000000
0000000000111111111111111111111111111111111111111111111111111100000000
0000000000000000000000000000000000000000111111111111111111111111111111
1111111111111111111111000000000000000000000000000000000000000000000000
1111111111111111111111111111111111111111111111111111000000000000000000
0000000000000000000000000000001111111111111111111111111111111111111111
1111111111110000000000000000000000000000000000000000000000001111111111
1111111111111111111111111111111111111111110000000000000000000000000000
0000000000000000000011111111111111111111111111111111111111111111111111
1100000000000000000000000000000000000000000000000011111111111111111111
1111111111111111111111111111111100000000000000000000000000000000000000
0000000000111111111111111111111111111111111111111111111111111100000000
0000000000000000000000000000000000000000111111111111111111111111111111
1111111111111111111111000000000000000000000000000000000000000000000000
1111111111111111111111111111111111111111111111111111000000000000000000
0000000000000000000000000000001111111111111111111111111111111111111111
1111111111110000000000000000000000000000000000000000000000001111111111
1111111111111111111111111111111111111111110000000000000000000000000000
0000000000000000000011111111111111111111111111111111111111111111111111
1100000000000000000000000000000000000000000000000011111111111111111111
1111111111111111111111111111111100000000000000000000000000000000000000
0000000000111111111111111111111111111111111111111111111111111100000000
0000000000000000000000000000000000000000111111111111111111111111111111
1111111111111111111111000000000000000000000000000000000000000000000000
1111111111111111111111111111111111111111111111111111000000000000000000
0000000000000000000000000000001111111111111111111111111111111111111111
1111111111110000000000000000000000000000000000000000000000001111111111
1111111111111111111111111111111111111111110000000000000000000000000000
0000000000000000000011111111111111111111111111111111111111111111111111
1100000000000000000000000000000000000000000000000011111111111111111111
1111111111111111111111111111111100000000000000000000000000000000000000
0000000000111111111111111111111111111111111111111111111111111100000000
0000000000000000000000000000000000000000111111111111111111111111111111
1111111111111111111111000000000000000000000000000000000000000000000000
1111111111111111111111111111111111111111111111111111000000000000000000
0000000000000000000000000000001111111111111111111111111111111111111111
1111111111110000000000000000000000000000000000000000000000001111111111
1111111111111111111111111111111111111111110000000000000000000000000000
0000000000000000000011111111111111111111111111111111111111111111111111
1100000000000000000000000000000000000000000000000011111111111111111111
1111111111111111111111111111111100000000000000000000000000000000000000
0000000000111111111111111111111111111111111111111111111111111100000000
0000000000000000000000000000000000000000111111111111111111111111111111
1111111111111111111111000000000000000000000000000000000000000000000000
1111111111111111111111111111111111111111111111111111100000000000000000
0000000000000000000000000000001111111111111111111111111111111111111111
1111111111111000000000000000000000000000000000000000000000001111111111
1111111111111111111111111111111111111111111000000000000000000000000000
0000000000000000000011111111111111111111111111111111111111111111111111
1110000000000000000000000000000000000000000000000011111111111111111111
1111111111111111111111111111111110000000000000000000000000000000000000
0000000000111111111111111111111111111111111111111111111111111110000000
0000000000000000000000000000000000000000111111111111111111111111111111
1111111111111111111111100000000000000000000000000000000000000000000000
1111111111111111111111111111111111111111111111111111100000000000000000
0000000000000000000000000000001111111111111111111111111111111111111111
111111111111100000000000000000000000000000000000000000000000